<?xml version="1.0" encoding="utf-8"?>
<!-- Generator: Adobe Illustrator 24.0.0, SVG Export Plug-In . SVG Version: 6.00 Build 0)  -->
<svg version="1.1" id="Layer_1" xmlns="http://www.w3.org/2000/svg" xmlns:xlink="http://www.w3.org/1999/xlink" x="0px" y="0px"
	 viewBox="0 0 45.3 49" style="enable-background:new 0 0 45.3 49;" xml:space="preserve">
<style type="text/css">
	.st0{fill:#FF6631;}
</style>
<path class="st0" d="M43.7,11.3C46,9,46,5.1,43.7,2.9l-1-1c-2.3-2.3-6.1-2.3-8.4,0l-2.1,2.1c-2.9-1.4-6.1-2.1-9.4-2.1V1.7
	c-3.3,0-6.6,0.7-9.4,2.1l-2.1-2.1c-2.3-2.3-6.1-2.3-8.4,0l-1,1c-2.3,2.3-2.3,6.1,0,8.4l1.5,1.5c-1.6,2.7-2.7,5.8-3.1,9
	c-0.8,6.6,1.3,12.7,5.1,17.3v8.8c0,0,0,0,0,0.2c0,0.2,0.2,0.3,0.3,0.5s0.3,0.2,0.5,0.3c0,0,0,0,0.2,0h1.4c0,0,0,0,0.2,0
	c0.2,0,0.3-0.2,0.5-0.3l3.8-3.8c0.1,0.1,0.2,0.1,0.3,0.2c0,0,0,0,0,0c3,1.5,6.5,2.4,10.1,2.4c3.8,0,7.5-0.9,10.7-2.6l3.8,3.8
	c0.2,0.2,0.3,0.3,0.5,0.3h0.2h0.2c0.2,0,0.2,0,0.3,0c0.2,0,0.2,0,0.3,0H39h0.2c0.2,0,0.3-0.2,0.5-0.3c0.2-0.2,0.3-0.3,0.3-0.5v-0.2
	v-0.2v-0.2v-8.2c3.3-4,5.2-9.1,5.2-14.5c0-4.4-1.2-8.2-3.3-11.7L43.7,11.3z M40.2,26.3H42c-0.5,5.8-3.7,10.8-8.2,14
	c-0.7,0.5-1.4,0.9-2.1,1.2c-2.1,1-4.5,1.9-7,2.1v-1.7c0-0.9-0.9-1.7-1.7-1.7s-1.7,0.9-1.7,1.7v1.7c-9.3-0.9-16.6-8.2-17.5-17.5h1.7
	c0.9,0,1.7-0.9,1.7-1.7c0-0.9-0.9-1.7-1.7-1.7H3.5c0.3-3.1,1.3-5.9,2.9-8.4c0,0,0,0,0.1,0c0.8-1.3,1.8-2.6,3-3.7
	c0.3-0.3,0.6-0.5,0.8-0.8c0,0,0,0,0,0c2.9-2.5,6.6-4.1,10.7-4.5v1.7c0,0.9,0.9,1.7,1.7,1.7s1.7-0.9,1.7-1.7V5.3
	c9.3,0.9,16.6,8.2,17.5,17.5h-1.7c-0.9,0-1.7,0.9-1.7,1.7S39.3,26.3,40.2,26.3z"/>
</svg>
