<?xml version="1.0" encoding="utf-8"?>
<!-- Generator: Adobe Illustrator 24.0.0, SVG Export Plug-In . SVG Version: 6.00 Build 0)  -->
<svg version="1.1" id="Layer_1" xmlns="http://www.w3.org/2000/svg" xmlns:xlink="http://www.w3.org/1999/xlink" x="0px" y="0px"
	 viewBox="0 0 391.1 456.8" style="enable-background:new 0 0 391.1 456.8;" xml:space="preserve">
<style type="text/css">
	.st0{fill:#FF6631;}
</style>
<title>quizelo</title>
<g id="Layer_2_1_">
	<g id="Layer_1-2">
		<path d="M388.1,388l-15.9-21.6c-4.2-5.8-11.8-7.3-17.5-3.1l-64.9,47.7c-5.7,4.2-7,12.2-2.8,17.9c0,0,0,0.1,0.1,0.1l15.9,21.6
			c5.3,7.2,12.9,7.9,18.6,3.7l8.1-6c10.5,4.6,22.6,3.6,33-4.1c9.7-6.9,14.9-18.4,13.9-30.3l9.9-7.3
			C392.3,402.3,392.4,393.7,388.1,388z"/>
		<path d="M218.9,71.2c-92.1,0-166.8,74.6-166.8,166.7s74.6,166.8,166.7,166.8c92.1,0,166.7-74.6,166.8-166.7
			C385.6,145.9,311,71.2,218.9,71.2C218.9,71.2,218.9,71.2,218.9,71.2z M219.6,354.3c-66.6,0-120.5-53.9-120.5-120.5
			S153,113.3,219.6,113.3s120.5,53.9,120.5,120.5C340.1,300.4,286.1,354.3,219.6,354.3L219.6,354.3L219.6,354.3z"/>
		<rect x="97.7" y="28.1" transform="matrix(0.8297 -0.5582 0.5582 0.8297 -11.2569 70.7686)" width="25.4" height="51.5"/>
		<rect x="208.1" y="15.8" transform="matrix(0.3226 -0.9465 0.9465 0.3226 131.4507 240.6056)" width="51.5" height="25.4"/>
		<rect x="16" y="126.5" transform="matrix(0.3901 -0.9208 0.9208 0.3901 -122.7137 119.2349)" width="25.4" height="51.5"/>
		<circle class="st0" cx="232.9" cy="279.8" r="81"/>
	</g>
</g>
</svg>
